<?xml version="1.0" encoding="utf-8"?>
<!-- Generator: Adobe Illustrator 27.3.1, SVG Export Plug-In . SVG Version: 6.00 Build 0)  -->
<svg version="1.1" xmlns="http://www.w3.org/2000/svg" xmlns:xlink="http://www.w3.org/1999/xlink" x="0px" y="0px"
	 viewBox="0 0 16 16" style="enable-background:new 0 0 16 16;" xml:space="preserve">
<style type="text/css">
	.st0{display:none;}
	.st1{display:inline;fill:#1E3050;}
	.st2{display:inline;}
	.st3{fill:#FFFFFF;}
</style>
<g id="Layer_1" class="st0">
	<path class="st1" d="M6.8,10.5h0.8v-2H6.8C6.3,8.5,6,8.2,6,7.8S6.3,7,6.8,7h1.5C8.7,7,9,7.3,9,7.8v2.8h0.2c0.4,0,0.8,0.3,0.8,0.8
		S9.7,12,9.2,12H6.8C6.3,12,6,11.7,6,11.2S6.3,10.5,6.8,10.5z"/>
	<circle class="st1" cx="8" cy="5" r="1"/>
	<g class="st2">
		<path class="st3" d="M16,7.2c0,0.3,0,0.5,0,0.8C16,7.7,16,7.5,16,7.2z"/>
		<path class="st3" d="M16,8c0,0.3,0,0.5,0,0.8C16,8.5,16,8.3,16,8z"/>
		<path class="st3" d="M8,16c-4.4,0-8-3.6-8-8s3.6-8,8-8c4.1,0,7.5,3.1,8,7.2C15.5,3.1,12.1,0,8,0C3.6,0,0,3.6,0,8S3.6,16,8,16
			c4.1,0,7.5-3.1,8-7.2C15.5,12.9,12.1,16,8,16z"/>
		<path class="st3" d="M8,1.8C4.6,1.8,1.8,4.6,1.8,8s2.8,6.2,6.2,6.2s6.2-2.8,6.2-6.2S11.4,1.8,8,1.8z M8,4c0.6,0,1,0.4,1,1
			S8.6,6,8,6S7,5.6,7,5S7.4,4,8,4z M9.2,12H6.8C6.3,12,6,11.7,6,11.2s0.3-0.8,0.8-0.8h0.8v-2H6.8C6.3,8.5,6,8.2,6,7.8S6.3,7,6.8,7
			h1.5C8.7,7,9,7.3,9,7.8v2.8h0.2c0.4,0,0.8,0.3,0.8,0.8S9.7,12,9.2,12z"/>
	</g>
</g>
<g id="Layer_3">
	<g>
		<g>
			<path class="st3" d="M10,11.2c0-0.4-0.3-0.8-0.8-0.8H9V7.8C9,7.3,8.7,7,8.3,7H6.8C6.3,7,6,7.3,6,7.8s0.3,0.8,0.8,0.8h0.8v2H6.8
				c-0.4,0-0.8,0.3-0.8,0.8S6.3,12,6.8,12h2.5C9.7,12,10,11.7,10,11.2z"/>
			<circle class="st3" cx="8" cy="5" r="1"/>
		</g>
		<path class="st3" d="M6.8,10.5h0.8v-2H6.8C6.3,8.5,6,8.2,6,7.8S6.3,7,6.8,7h1.5C8.7,7,9,7.3,9,7.8v2.8h0.2c0.4,0,0.8,0.3,0.8,0.8
			S9.7,12,9.3,12H6.8C6.3,12,6,11.7,6,11.2S6.3,10.5,6.8,10.5z"/>
		<circle class="st3" cx="8" cy="5" r="1"/>
		<path class="st3" d="M8,16c-4.4,0-8-3.6-8-8s3.6-8,8-8s8,3.6,8,8S12.4,16,8,16z M8,1.6C4.5,1.6,1.8,4.4,1.8,8s2.8,6.4,6.2,6.4
			s6.2-2.9,6.2-6.4S11.4,1.6,8,1.6z"/>
	</g>
</g>
<g id="Layer_1_copy" class="st0">
	<path class="st1" d="M8,16c4.4,0,8-3.6,8-8s-3.6-8-8-8S0,3.6,0,8S3.6,16,8,16z M6.8,10.5h0.8v-2H6.8C6.3,8.5,6,8.2,6,7.8
		S6.3,7,6.8,7h1.5C8.7,7,9,7.3,9,7.8v2.8h0.2c0.4,0,0.8,0.3,0.8,0.8S9.7,12,9.2,12H6.8C6.3,12,6,11.7,6,11.2S6.3,10.5,6.8,10.5z
		 M8,4c0.6,0,1,0.4,1,1S8.6,6,8,6S7,5.6,7,5S7.4,4,8,4z"/>
	<path class="st1" d="M6.8,10.5h0.8v-2H6.8C6.3,8.5,6,8.2,6,7.8S6.3,7,6.8,7h1.5C8.7,7,9,7.3,9,7.8v2.8h0.2c0.4,0,0.8,0.3,0.8,0.8
		S9.7,12,9.2,12H6.8C6.3,12,6,11.7,6,11.2S6.3,10.5,6.8,10.5z"/>
	<circle class="st1" cx="8" cy="5" r="1"/>
</g>
</svg>
